{"title":"Love Child S03E02 1080P WEB-DL AAC2 0 H 264","uid":15127413,"size":1716557592,"categoryP":"video","categoryS":"hd___tv_shows","magnet":"?xt=urn:btih:95a89e706050871ffebe9bd9d4e5a7be2e705104&amp;dn=Love+Child+S03E02+1080P+WEB-DL+AAC2+0+H+264&amp;tr=udp%3A%2F%2Ftracker.leechers-paradise.org%3A6969&amp;tr=udp%3A%2F%2Fzer0day.ch%3A1337&amp;tr=udp%3A%2F%2Fopen.demonii.com%3A1337&amp;tr=udp%3A%2F%2Ftracker.coppersurfer.tk%3A6969&amp;tr=udp%3A%2F%2Fexodus.desync.com%3A6969","seeders":1,"leechers":2,"uploader":"jmanwf","files":1,"time":1467123414,"description":"Description\r\nShirley (Ella Scott Lynch) fights to keep her job at the Blue Moon as Maggie (Tiarnie Coupland) / 1970 is in full swing, and times they are a-changing. Shirley (Ella Scott Lynch) is confronted with a surprise return, and Matron (Mandy McElhinney) is determined to see the re-opening of Stanton House. Joan (Jessica Marais) struggles to have it all and Annie (Gracie Gilbert) struggles to make ends meet. Patty’s (Harriet Dyer) business is booming, whilst Viv (Sophie Hensser) is in desperate search of a connection and Martha (Miranda Tapsell) is faced with a question that is hard to answer.\r\n\r\n\r\n\r\nVideo\r\nID : 2\r\nFormat : AVC\r\nFormat/Info : Advanced Video Codec\r\nFormat profile :   \r\nFormat settings, CABAC : Yes\r\nFormat settings, ReFrames : 4 frames\r\nCodec ID : V_MPEG4/ISO/AVC\r\nDuration : 45mn 4s\r\nBit rate : 4 949 Kbps\r\nWidth : 1 912 pixels\r\nHeight : 1 072 pixels\r\nDisplay aspect ratio : 16:9\r\nFrame rate mode : Constant\r\nFrame rate : 25.000 fps\r\nColor space : YUV\r\nChroma subsampling : 4:2:0\r\nBit depth : 8 bits\r\nScan type : Progressive\r\nBits/(Pixel*Frame) : 0.097\r\nStream size : 1.56 GiB (97%)\r\nLanguage : English\r\nDefault : Yes\r\nForced : No\r\nColor range : Limited\r\nColor primaries : BT.709\r\nTransfer characteristics : BT.709\r\nMatrix coefficients : BT.709\r\n\r\nAudio\r\nID : 1\r\nFormat : AAC\r\nFormat/Info : Advanced Audio Codec\r\nFormat profile : LC\r\nCodec ID : A_AAC\r\nDuration : 45mn 4s\r\nBit rate : 126 Kbps\r\nChannel(s) : 2 channels\r\nChannel positions : Front: L R\r\nSampling rate : 48.0 KHz\r\nFrame rate : 46.875 fps (1024 spf)\r\nCompression mode : Lossy\r\nStream size : 40.5 MiB (2%)\r\nLanguage : English\r\nDefault : Yes\r\nForced : No","torrent":{"xt":"urn:btih:95a89e706050871ffebe9bd9d4e5a7be2e705104","amp;dn":"Love+Child+S03E02+1080P+WEB-DL+AAC2+0+H+264","amp;tr":["udp%3A%2F%2Ftracker.leechers-paradise.org%3A6969","udp%3A%2F%2Fzer0day.ch%3A1337","udp%3A%2F%2Fopen.demonii.com%3A1337","udp%3A%2F%2Ftracker.coppersurfer.tk%3A6969","udp%3A%2F%2Fexodus.desync.com%3A6969"],"infoHash":"95a89e706050871ffebe9bd9d4e5a7be2e705104","infoHashBuffer":{"type":"Buffer","data":[149,168,158,112,96,80,135,31,254,190,155,217,212,229,167,190,46,112,81,4]},"announce":[],"urlList":[]}}